<!DOCTYPE svg PUBLIC "-//W3C//DTD SVG 1.1//EN" "http://www.w3.org/Graphics/SVG/1.1/DTD/svg11.dtd">
<!-- Uploaded to: SVG Repo, www.svgrepo.com, Transformed by: SVG Repo Mixer Tools -->
<svg fill="#ac9ef0" width="800px" height="800px" viewBox="0 0 24 24" id="adapter-2" data-name="Flat Line" xmlns="http://www.w3.org/2000/svg" class="icon flat-line" stroke="#ac9ef0">
<g id="SVGRepo_bgCarrier" stroke-width="0"/>
<g id="SVGRepo_tracerCarrier" stroke-linecap="round" stroke-linejoin="round"/>
<g id="SVGRepo_iconCarrier">
<path id="secondary" d="M11,3h6a1,1,0,0,1,1,1V14a1,1,0,0,1-1,1H10a1,1,0,0,1-1-1V5a2,2,0,0,1,2-2Z" transform="translate(27 18) rotate(-180)" style="fill: #976ef7; stroke-width: 2;"/>
<path id="primary" d="M6,5H9M6,9H9m6,12V18M9,4V14a1,1,0,0,0,1,1h6a2,2,0,0,0,2-2V4a1,1,0,0,0-1-1H10A1,1,0,0,0,9,4Zm5,14h2V15H14Z" style="fill: none; stroke: #976ef7000000; stroke-linecap: round; stroke-linejoin: round; stroke-width: 2;"/>
</g>
</svg>