<!DOCTYPE svg PUBLIC "-//W3C//DTD SVG 1.1//EN" "http://www.w3.org/Graphics/SVG/1.1/DTD/svg11.dtd">
<!-- Uploaded to: SVG Repo, www.svgrepo.com, Transformed by: SVG Repo Mixer Tools -->
<svg fill="#000000" width="800px" height="800px" viewBox="0 0 24 24" id="adapter" data-name="Flat Line" xmlns="http://www.w3.org/2000/svg" class="icon flat-line">
<g id="SVGRepo_bgCarrier" stroke-width="0"/>
<g id="SVGRepo_tracerCarrier" stroke-linecap="round" stroke-linejoin="round"/>
<g id="SVGRepo_iconCarrier">
<path id="secondary" d="M8,3h6a1,1,0,0,1,1,1V14a1,1,0,0,1-1,1H7a1,1,0,0,1-1-1V5A2,2,0,0,1,8,3Z" style="fill: #2ca9bc; stroke-width: 2;"/>
<path id="primary" d="M9,18v3M15,5h3M15,9h3m-8,6H8v3h2Zm5-1V4a1,1,0,0,0-1-1H8A2,2,0,0,0,6,5v9a1,1,0,0,0,1,1h7A1,1,0,0,0,15,14Z" style="fill: none; stroke: #000000; stroke-linecap: round; stroke-linejoin: round; stroke-width: 2;"/>
</g>
</svg>